<svg id="Layer_1" data-name="Layer 1" xmlns="http://www.w3.org/2000/svg" xmlns:xlink="http://www.w3.org/1999/xlink" viewBox="0 0 701.36 158.74"><defs><style>.cls-1{fill:url(#linear-gradient);}.cls-2{fill:url(#linear-gradient-2);}.cls-3{fill:url(#linear-gradient-3);}.cls-4{fill:url(#linear-gradient-4);}.cls-5{fill:url(#linear-gradient-5);}.cls-6{fill:url(#linear-gradient-6);}.cls-7{fill:url(#linear-gradient-7);}.cls-8{fill:url(#linear-gradient-8);}.cls-11,.cls-13,.cls-15,.cls-17,.cls-19,.cls-20,.cls-9{opacity:0.18;}.cls-9{fill:url(#linear-gradient-9);}.cls-10{fill:url(#linear-gradient-10);}.cls-11{fill:url(#linear-gradient-11);}.cls-12{fill:url(#linear-gradient-12);}.cls-13{fill:url(#linear-gradient-13);}.cls-14{fill:url(#linear-gradient-14);}.cls-15{fill:url(#linear-gradient-15);}.cls-16{fill:url(#linear-gradient-16);}.cls-17{fill:url(#linear-gradient-17);}.cls-18{fill:url(#linear-gradient-18);}.cls-19{fill:url(#linear-gradient-19);}.cls-20{fill:url(#linear-gradient-20);}.cls-21{fill:#fff083;}.cls-22{fill:#eff2f9;}.cls-23{fill:#180938;}.cls-24{fill:#fff;}</style><linearGradient id="linear-gradient" x1="6.25" y1="108.91" x2="143.73" y2="108.91" gradientUnits="userSpaceOnUse"><stop offset="0" stop-color="#ffa900"/><stop offset="0.51" stop-color="#ff593a"/><stop offset="0.99" stop-color="#ff2458"/></linearGradient><linearGradient id="linear-gradient-2" x1="6.25" y1="86.78" x2="143.73" y2="86.78" xlink:href="#linear-gradient"/><linearGradient id="linear-gradient-3" x1="6.25" y1="48.52" x2="143.73" y2="48.52" xlink:href="#linear-gradient"/><linearGradient id="linear-gradient-4" x1="6.25" y1="130.74" x2="143.73" y2="130.74" xlink:href="#linear-gradient"/><linearGradient id="linear-gradient-5" x1="6.25" y1="45.8" x2="143.73" y2="45.8" xlink:href="#linear-gradient"/><linearGradient id="linear-gradient-6" x1="6.25" y1="113.35" x2="143.73" y2="113.35" xlink:href="#linear-gradient"/><linearGradient id="linear-gradient-7" x1="6.25" y1="82.43" x2="143.73" y2="82.43" xlink:href="#linear-gradient"/><linearGradient id="linear-gradient-8" x1="6.25" y1="75.03" x2="143.73" y2="75.03" xlink:href="#linear-gradient"/><linearGradient id="linear-gradient-9" x1="23.18" y1="75.03" x2="139.78" y2="75.03" gradientUnits="userSpaceOnUse"><stop offset="0.01" stop-color="#fff449"/><stop offset="0.06" stop-color="#fff341"/><stop offset="0.3" stop-color="#ffef25"/><stop offset="0.53" stop-color="#ffec10"/><stop offset="0.76" stop-color="#ffeb04"/><stop offset="0.99" stop-color="#ffea00"/></linearGradient><linearGradient id="linear-gradient-10" x1="6.25" y1="129.82" x2="143.73" y2="129.82" xlink:href="#linear-gradient"/><linearGradient id="linear-gradient-11" x1="23.18" y1="129.82" x2="139.78" y2="129.82" xlink:href="#linear-gradient-9"/><linearGradient id="linear-gradient-12" x1="9.76" y1="128.16" x2="143.17" y2="128.16" xlink:href="#linear-gradient"/><linearGradient id="linear-gradient-13" x1="26.19" y1="128.16" x2="139.35" y2="128.16" xlink:href="#linear-gradient-9"/><linearGradient id="linear-gradient-14" x1="6.25" y1="86.77" x2="143.73" y2="86.77" xlink:href="#linear-gradient"/><linearGradient id="linear-gradient-15" x1="23.18" y1="86.77" x2="139.78" y2="86.77" xlink:href="#linear-gradient-9"/><linearGradient id="linear-gradient-16" x1="6.25" y1="108.82" x2="143.73" y2="108.82" xlink:href="#linear-gradient"/><linearGradient id="linear-gradient-17" x1="23.18" y1="108.82" x2="139.78" y2="108.82" xlink:href="#linear-gradient-9"/><linearGradient id="linear-gradient-18" x1="6.25" y1="93.41" x2="143.73" y2="93.41" xlink:href="#linear-gradient"/><linearGradient id="linear-gradient-19" x1="23.18" y1="93.41" x2="139.78" y2="93.41" xlink:href="#linear-gradient-9"/><linearGradient id="linear-gradient-20" x1="41.28" y1="93.41" x2="136.22" y2="93.41" xlink:href="#linear-gradient-9"/></defs><path class="cls-1" d="M131.16,120.14l.37,0a68.24,68.24,0,0,0,10.15-22.37l-2.46-.14A58,58,0,0,1,131.16,120.14Z"/><path class="cls-2" d="M139.78,89.62c0,.92,0,1.85-.07,2.76l3.13-.26a67.24,67.24,0,0,0,.88-10.69l-4.55-.25A58.63,58.63,0,0,1,139.78,89.62Z"/><path class="cls-3" d="M48.9,41.26l-31,1.55a68.15,68.15,0,0,0-6.13,11.27L34,55.77A58.81,58.81,0,0,1,48.9,41.26Z"/><path class="cls-4" d="M32.27,120.86l-13,.48a68.94,68.94,0,0,0,21.37,19.27A83.06,83.06,0,0,0,51,139.32,58.65,58.65,0,0,1,32.27,120.86Z"/><path class="cls-5" d="M81.48,31.32a58.3,58.3,0,0,1,57.37,47.94l4.84-.4a68.74,68.74,0,0,0-121-42.39l30.2,2.34A57.93,57.93,0,0,1,81.48,31.32Z"/><path class="cls-6" d="M26.45,108.87l-13.95.89A65.66,65.66,0,0,0,16.39,117l14.07.81A58.14,58.14,0,0,1,26.45,108.87Z"/><path class="cls-7" d="M23.18,89.62a58,58,0,0,1,9.59-32L9.86,59.05a69,69,0,0,0,1,46.69l15.09,1.51A58.32,58.32,0,0,1,23.18,89.62Z"/><path class="cls-8" d="M88.75,50.11a47.49,47.49,0,0,1,44,29.65l6.1-.5A58.29,58.29,0,0,0,52.9,38.81l17.77,1.37L48.9,41.26A58.81,58.81,0,0,0,34,55.77l12.54,1-13.79.87a58.33,58.33,0,0,0-6.87,49.65l10,1-9.47.61a58.14,58.14,0,0,0,4,9l15.8.91A47.47,47.47,0,0,1,88.75,50.11Z"/><path class="cls-9" d="M88.75,50.11a47.49,47.49,0,0,1,44,29.65l6.1-.5A58.29,58.29,0,0,0,52.9,38.81l17.77,1.37L48.9,41.26A58.81,58.81,0,0,0,34,55.77l12.54,1-13.79.87a58.33,58.33,0,0,0-6.87,49.65l10,1-9.47.61a58.14,58.14,0,0,0,4,9l15.8.91A47.47,47.47,0,0,1,88.75,50.11Z"/><path class="cls-10" d="M47.07,120.32l-14.8.54A58.65,58.65,0,0,0,51,139.32c3.68-.69,7.32-1.58,10.88-2.61A47.75,47.75,0,0,1,47.07,120.32Z"/><path class="cls-11" d="M47.07,120.32l-14.8.54A58.65,58.65,0,0,0,51,139.32c3.68-.69,7.32-1.58,10.88-2.61A47.75,47.75,0,0,1,47.07,120.32Z"/><path class="cls-12" d="M125.13,128.08l-.15.16.14-.16Z"/><path class="cls-13" d="M125.13,128.08l-.15.16.14-.16Z"/><path class="cls-14" d="M139.71,92.38c0-.91.07-1.84.07-2.76a58.63,58.63,0,0,0-.61-8.44l-6-.33A47,47,0,0,1,136,92.69Z"/><path class="cls-15" d="M139.71,92.38c0-.91.07-1.84.07-2.76a58.63,58.63,0,0,0-.61-8.44l-6-.33A47,47,0,0,1,136,92.69Z"/><path class="cls-16" d="M136.22,97.49v.09a47.27,47.27,0,0,1-5.67,22.53l.61,0a58,58,0,0,0,8.06-22.49Z"/><path class="cls-17" d="M136.22,97.49v.09a47.27,47.27,0,0,1-5.67,22.53l.61,0a58,58,0,0,0,8.06-22.49Z"/><path class="cls-18" d="M136.22,97.49l-35-1.94L136,92.69a47,47,0,0,0-2.79-11.84L125,80.39l7.72-.63a47.47,47.47,0,1,0-86.49,39l17.07,1-16.26.6a47.75,47.75,0,0,0,14.81,16.39l.44-.12C78,132,92.93,124.85,109,121.72a90.83,90.83,0,0,1,21.6-1.61,47.27,47.27,0,0,0,5.67-22.53Z"/><path class="cls-19" d="M136.22,97.49l-35-1.94L136,92.69a47,47,0,0,0-2.79-11.84L125,80.39l7.72-.63a47.47,47.47,0,1,0-86.49,39l17.07,1-16.26.6a47.75,47.75,0,0,0,14.81,16.39l.44-.12C78,132,92.93,124.85,109,121.72a90.83,90.83,0,0,1,21.6-1.61,47.27,47.27,0,0,0,5.67-22.53Z"/><path class="cls-20" d="M136.22,97.49l-35-1.94L136,92.69a47,47,0,0,0-2.79-11.84L125,80.39l7.72-.63a47.47,47.47,0,1,0-86.49,39l17.07,1-16.26.6a47.75,47.75,0,0,0,14.81,16.39l.44-.12C78,132,92.93,124.85,109,121.72a90.83,90.83,0,0,1,21.6-1.61,47.27,47.27,0,0,0,5.67-22.53Z"/><path class="cls-21" d="M70.67,40.18,52.9,38.81,22.7,36.47a66,66,0,0,0-4.81,6.34l31-1.55Z"/><path class="cls-21" d="M47.07,120.32l16.26-.6-17.07-1-15.8-.91L16.39,117c.9,1.47,1.86,2.92,2.88,4.32l13-.48Z"/><path class="cls-21" d="M35.92,108.26l-10-1-15.09-1.51c.52,1.36,1.08,2.7,1.69,4l14-.89Z"/><path class="cls-21" d="M46.56,56.73,34,55.77,11.76,54.08q-1,2.45-1.9,5L32.77,57.6Z"/><path class="cls-21" d="M136,92.69l-34.8,2.86,35.05,1.94,3,.16,2.46.14c.47-1.86.85-3.75,1.16-5.67l-3.13.26Z"/><path class="cls-21" d="M132.75,79.76l-7.72.63,8.15.46,6,.33,4.55.25c0-.12,0-.23,0-.35,0-.74,0-1.48,0-2.22l-4.84.4Z"/><path class="cls-22" d="M170.36,131.14c-11.43-5.73-25-6.53-37.64-4.57-2.49.4-5,.9-7.41,1.47l-.18,0h0c-2.87.66-5.72,1.42-8.54,2.25-7.89,2.35-15.65,5.26-23.4,8-13,4.65-26.26,9-40,9.66S24.92,145.23,14.74,136c8.06,4,16.94,5.18,25.9,4.67A82.87,82.87,0,0,0,51,139.31c3.67-.68,7.32-1.57,10.88-2.6l.45-.12C78,132,92.93,124.85,109,121.72a90.83,90.83,0,0,1,21.6-1.61l.61,0h.37A93.87,93.87,0,0,1,170.36,131.14Z"/><path class="cls-23" d="M170.36,131.14c.82.44,1.65.87,2.47,1.33C172,132,171.19,131.56,170.36,131.14Z"/><polygon class="cls-24" points="24.87 119.63 34.47 119.63 34.47 113 51.81 81.01 74.48 118.85 50.74 73.2 24.87 119.63"/><path class="cls-24" d="M50.21,64.62,24.87,116.51,50.74,70.86l26.15,46.71.81-.22,1.88-.47,1.88-.45,1.87-.42c2.52-.55,5-1,7.52-1.43,1.25-.19,2.46-.37,3.63-.52L72.61,74Z"/><path class="cls-24" d="M112.62,84.91,90.75,90.76,87.18,98.7l8.31,15.23,1.31-.15,15.82-26.14L129.1,115.9l.06,0Z"/><path class="cls-24" d="M98.87,113.58l.16,0h.07l13.25-20.07,10.93,20.68v.34l.37.07c.57.11,1.15.23,1.69.36s1.19.27,1.68.4h0l-14.4-25.75Z"/><rect class="cls-24" x="47.73" y="97.26" width="4.8" height="7.03"/><rect class="cls-24" x="53.56" y="97.26" width="4.8" height="7.03"/><rect class="cls-24" x="47.73" y="105.79" width="4.8" height="7.03"/><rect class="cls-24" x="53.56" y="105.79" width="4.8" height="7.03"/><rect class="cls-24" x="109.34" y="102.93" width="2.82" height="4.13"/><rect class="cls-24" x="112.77" y="102.93" width="2.82" height="4.13"/><rect class="cls-24" x="109.34" y="107.95" width="2.82" height="4.13"/><rect class="cls-24" x="112.77" y="107.95" width="2.82" height="4.13"/><path class="cls-22" d="M233.25,109l9.47-53.38H217.13l2.52-14.71h67.79l-2.52,14.71H259.33L249.87,109Z"/><path class="cls-22" d="M285.43,80.21c0-14.3,9.67-40.59,45.12-40.59,23.17,0,36.57,12.19,36.57,30.12,0,14.5-10,40.59-45.43,40.59C298.43,110.33,285.43,97.84,285.43,80.21Zm64.66-9.36c0-10.18-7-16.42-20.64-16.42-22.77,0-26.8,17.32-26.8,24.88,0,10,6.75,16.21,20.65,16.21C342.64,95.52,350.09,83,350.09,70.85Z"/><path class="cls-22" d="M378.21,86.76a44.38,44.38,0,0,1,.7-7.25l6.75-38.58h16.52l-6.95,39.89a23.22,23.22,0,0,0-.4,4.33c0,7.25,5.13,10.47,15.1,10.47,10.38,0,16.82-5.74,18.44-16l6.74-38.68h16.52l-6.95,39.78c-2.92,16.53-12.89,29.72-37.26,29.72C385.86,110.43,378.21,100,378.21,86.76Z"/><path class="cls-22" d="M507.45,85l17.72,24h-21L487.91,85.85h-10L473.8,109H457.29l12-68.09h38c2.42,0,23.67,0,23.67,20.85C530.91,72.35,525.27,82.23,507.45,85Zm-24.18-29.4-2.82,15.91h17.33c5.23,0,16.11,0,16.11-9.27,0-6.64-5.64-6.64-12.08-6.64Z"/><path class="cls-22" d="M537.77,109l12-68.09h63.55L610.8,55.64h-47l-2.12,11.68H601L598.41,82H559l-2.12,12.29h47L601.33,109Z"/><path class="cls-22" d="M616.15,109l12-68.09h63.56l-2.52,14.71h-47L640,67.32H679.4L676.78,82H637.4l-2.12,12.29h47L679.7,109Z"/></svg>