<svg id="Layer_1" data-name="Layer 1" xmlns="http://www.w3.org/2000/svg" xmlns:xlink="http://www.w3.org/1999/xlink" viewBox="0 0 176 188.94"><defs><style>.cls-1{fill:url(#linear-gradient);}.cls-2{fill:url(#linear-gradient-2);}.cls-3{fill:url(#linear-gradient-3);}.cls-4{fill:url(#linear-gradient-4);}.cls-5{fill:url(#linear-gradient-5);}.cls-6{fill:url(#linear-gradient-6);}.cls-7{fill:url(#linear-gradient-7);}.cls-8{fill:url(#linear-gradient-8);}.cls-11,.cls-13,.cls-15,.cls-17,.cls-19,.cls-20,.cls-9{opacity:0.18;}.cls-9{fill:url(#linear-gradient-9);}.cls-10{fill:url(#linear-gradient-10);}.cls-11{fill:url(#linear-gradient-11);}.cls-12{fill:url(#linear-gradient-12);}.cls-13{fill:url(#linear-gradient-13);}.cls-14{fill:url(#linear-gradient-14);}.cls-15{fill:url(#linear-gradient-15);}.cls-16{fill:url(#linear-gradient-16);}.cls-17{fill:url(#linear-gradient-17);}.cls-18{fill:url(#linear-gradient-18);}.cls-19{fill:url(#linear-gradient-19);}.cls-20{fill:url(#linear-gradient-20);}.cls-21{fill:#fff083;}.cls-22{fill:#e6e7e8;}.cls-23{fill:#180938;}</style><linearGradient id="linear-gradient" x1="8.06" y1="107.73" x2="145.54" y2="107.73" gradientUnits="userSpaceOnUse"><stop offset="0" stop-color="#ffa900"/><stop offset="0.51" stop-color="#ff593a"/><stop offset="0.99" stop-color="#ff2458"/></linearGradient><linearGradient id="linear-gradient-2" x1="8.06" y1="85.6" x2="145.54" y2="85.6" xlink:href="#linear-gradient"/><linearGradient id="linear-gradient-3" x1="8.06" y1="47.34" x2="145.54" y2="47.34" xlink:href="#linear-gradient"/><linearGradient id="linear-gradient-4" x1="8.06" y1="129.56" x2="145.54" y2="129.56" xlink:href="#linear-gradient"/><linearGradient id="linear-gradient-5" x1="8.06" y1="44.62" x2="145.54" y2="44.62" xlink:href="#linear-gradient"/><linearGradient id="linear-gradient-6" x1="8.06" y1="112.17" x2="145.54" y2="112.17" xlink:href="#linear-gradient"/><linearGradient id="linear-gradient-7" x1="8.06" y1="81.25" x2="145.54" y2="81.25" xlink:href="#linear-gradient"/><linearGradient id="linear-gradient-8" x1="8.06" y1="73.85" x2="145.54" y2="73.85" xlink:href="#linear-gradient"/><linearGradient id="linear-gradient-9" x1="24.99" y1="73.85" x2="141.6" y2="73.85" gradientUnits="userSpaceOnUse"><stop offset="0.01" stop-color="#fff449"/><stop offset="0.06" stop-color="#fff341"/><stop offset="0.3" stop-color="#ffef25"/><stop offset="0.53" stop-color="#ffec10"/><stop offset="0.76" stop-color="#ffeb04"/><stop offset="0.99" stop-color="#ffea00"/></linearGradient><linearGradient id="linear-gradient-10" x1="8.06" y1="128.64" x2="145.54" y2="128.64" xlink:href="#linear-gradient"/><linearGradient id="linear-gradient-11" x1="24.99" y1="128.64" x2="141.6" y2="128.64" xlink:href="#linear-gradient-9"/><linearGradient id="linear-gradient-12" x1="11.58" y1="126.98" x2="144.99" y2="126.98" xlink:href="#linear-gradient"/><linearGradient id="linear-gradient-13" x1="28.01" y1="126.98" x2="141.16" y2="126.98" xlink:href="#linear-gradient-9"/><linearGradient id="linear-gradient-14" x1="8.06" y1="85.59" x2="145.54" y2="85.59" xlink:href="#linear-gradient"/><linearGradient id="linear-gradient-15" x1="24.99" y1="85.59" x2="141.6" y2="85.59" xlink:href="#linear-gradient-9"/><linearGradient id="linear-gradient-16" x1="8.06" y1="107.64" x2="145.54" y2="107.64" xlink:href="#linear-gradient"/><linearGradient id="linear-gradient-17" x1="24.99" y1="107.64" x2="141.6" y2="107.64" xlink:href="#linear-gradient-9"/><linearGradient id="linear-gradient-18" x1="8.06" y1="92.23" x2="145.54" y2="92.23" xlink:href="#linear-gradient"/><linearGradient id="linear-gradient-19" x1="24.99" y1="92.23" x2="141.6" y2="92.23" xlink:href="#linear-gradient-9"/><linearGradient id="linear-gradient-20" x1="43.1" y1="92.23" x2="138.04" y2="92.23" xlink:href="#linear-gradient-9"/></defs><path class="cls-1" d="M133,119l.37,0a68.18,68.18,0,0,0,10.15-22.38L141,96.48A57.89,57.89,0,0,1,133,119Z"/><path class="cls-2" d="M141.6,88.44c0,.93,0,1.85-.07,2.76l3.12-.25a68.66,68.66,0,0,0,.89-10.7L141,80A58.73,58.73,0,0,1,141.6,88.44Z"/><path class="cls-3" d="M50.71,40.09l-31,1.54a67.84,67.84,0,0,0-6.13,11.28L35.84,54.6A58.27,58.27,0,0,1,50.71,40.09Z"/><path class="cls-4" d="M34.08,119.68l-13,.48a68.91,68.91,0,0,0,21.36,19.27,82.82,82.82,0,0,0,10.36-1.29A58.55,58.55,0,0,1,34.08,119.68Z"/><path class="cls-5" d="M83.3,30.14a58.29,58.29,0,0,1,57.36,47.94l4.84-.4a68.74,68.74,0,0,0-121-42.39l30.2,2.34A58.07,58.07,0,0,1,83.3,30.14Z"/><path class="cls-6" d="M28.26,107.69l-13.94.89a64.71,64.71,0,0,0,3.88,7.26l14.07.81A58.14,58.14,0,0,1,28.26,107.69Z"/><path class="cls-7" d="M25,88.44a58,58,0,0,1,9.59-32L11.67,57.87a68.91,68.91,0,0,0,1,46.69l15.09,1.51A58,58,0,0,1,25,88.44Z"/><path class="cls-8" d="M90.57,48.93a47.47,47.47,0,0,1,44,29.65l6.1-.5A58.29,58.29,0,0,0,54.71,37.63L72.48,39,50.71,40.09A58.27,58.27,0,0,0,35.84,54.6l12.53.95-13.79.87a58.26,58.26,0,0,0-6.86,49.65l10,1-9.47.61a58.14,58.14,0,0,0,4,9l15.8.91a47.48,47.48,0,0,1,42.5-68.63Z"/><path class="cls-9" d="M90.57,48.93a47.47,47.47,0,0,1,44,29.65l6.1-.5A58.29,58.29,0,0,0,54.71,37.63L72.48,39,50.71,40.09A58.27,58.27,0,0,0,35.84,54.6l12.53.95-13.79.87a58.26,58.26,0,0,0-6.86,49.65l10,1-9.47.61a58.14,58.14,0,0,0,4,9l15.8.91a47.48,47.48,0,0,1,42.5-68.63Z"/><path class="cls-10" d="M48.89,119.14l-14.81.54a58.55,58.55,0,0,0,18.73,18.46c3.68-.68,7.32-1.58,10.89-2.61A47.56,47.56,0,0,1,48.89,119.14Z"/><path class="cls-11" d="M48.89,119.14l-14.81.54a58.55,58.55,0,0,0,18.73,18.46c3.68-.68,7.32-1.58,10.89-2.61A47.56,47.56,0,0,1,48.89,119.14Z"/><path class="cls-12" d="M127,126.9l-.15.17a2.09,2.09,0,0,1,.14-.17Z"/><path class="cls-13" d="M127,126.9l-.15.17a2.09,2.09,0,0,1,.14-.17Z"/><path class="cls-14" d="M141.53,91.2c0-.91.07-1.83.07-2.76A58.73,58.73,0,0,0,141,80l-6-.33a47.48,47.48,0,0,1,2.8,11.84Z"/><path class="cls-15" d="M141.53,91.2c0-.91.07-1.83.07-2.76A58.73,58.73,0,0,0,141,80l-6-.33a47.48,47.48,0,0,1,2.8,11.84Z"/><path class="cls-16" d="M138,96.31s0,.06,0,.1a47.24,47.24,0,0,1-5.68,22.52l.61,0A57.89,57.89,0,0,0,141,96.48Z"/><path class="cls-17" d="M138,96.31s0,.06,0,.1a47.24,47.24,0,0,1-5.68,22.52l.61,0A57.89,57.89,0,0,0,141,96.48Z"/><path class="cls-18" d="M138,96.31l-35-1.94,34.81-2.86A47.48,47.48,0,0,0,135,79.67l-8.15-.45,7.72-.64a47.47,47.47,0,1,0-86.49,39l17.07,1-16.25.6A47.56,47.56,0,0,0,63.7,135.53l.44-.12c15.67-4.58,30.6-11.74,46.63-14.87a91.27,91.27,0,0,1,21.59-1.61A47.24,47.24,0,0,0,138,96.41S138,96.34,138,96.31Z"/><path class="cls-19" d="M138,96.31l-35-1.94,34.81-2.86A47.48,47.48,0,0,0,135,79.67l-8.15-.45,7.72-.64a47.47,47.47,0,1,0-86.49,39l17.07,1-16.25.6A47.56,47.56,0,0,0,63.7,135.53l.44-.12c15.67-4.58,30.6-11.74,46.63-14.87a91.27,91.27,0,0,1,21.59-1.61A47.24,47.24,0,0,0,138,96.41S138,96.34,138,96.31Z"/><path class="cls-20" d="M138,96.31l-35-1.94,34.81-2.86A47.48,47.48,0,0,0,135,79.67l-8.15-.45,7.72-.64a47.47,47.47,0,1,0-86.49,39l17.07,1-16.25.6A47.56,47.56,0,0,0,63.7,135.53l.44-.12c15.67-4.58,30.6-11.74,46.63-14.87a91.27,91.27,0,0,1,21.59-1.61A47.24,47.24,0,0,0,138,96.41S138,96.34,138,96.31Z"/><path class="cls-21" d="M72.48,39,54.71,37.63l-30.2-2.34a67.7,67.7,0,0,0-4.81,6.34l31-1.54Z"/><path class="cls-21" d="M48.89,119.14l16.25-.6-17.07-1-15.8-.91-14.07-.81q1.35,2.22,2.89,4.32l13-.48Z"/><path class="cls-21" d="M37.73,107.08l-10-1-15.09-1.51c.51,1.37,1.07,2.71,1.69,4l13.94-.89Z"/><path class="cls-21" d="M48.37,55.55,35.84,54.6,13.57,52.91c-.69,1.62-1.33,3.28-1.9,5l22.91-1.45Z"/><path class="cls-21" d="M137.79,91.51,103,94.37,138,96.31l3,.17,2.46.13q.7-2.79,1.16-5.66l-3.12.25Z"/><path class="cls-21" d="M134.56,78.58l-7.72.64,8.15.45,6,.33,4.56.25V79.9c0-.74,0-1.48,0-2.22l-4.84.4Z"/><path class="cls-22" d="M172.17,130c-11.42-5.73-24.94-6.53-37.63-4.56-2.49.39-5,.89-7.42,1.46l-.17,0h0c-2.88.66-5.72,1.42-8.54,2.25-7.9,2.36-15.65,5.27-23.41,8-13,4.65-26.26,9-40,9.66s-28.24-2.81-38.42-12.09c8.06,4,16.94,5.19,25.91,4.67a83.11,83.11,0,0,0,10.36-1.31,111.78,111.78,0,0,0,10.88-2.6l.44-.12c15.66-4.59,30.6-11.73,46.63-14.87a91.27,91.27,0,0,1,21.59-1.61l.61,0h.38A93.83,93.83,0,0,1,172.17,130Z"/><path class="cls-23" d="M172.17,130c.83.44,1.66.87,2.48,1.33C173.83,130.82,173,130.38,172.17,130Z"/><polygon class="cls-22" points="23.29 121.61 33.52 121.61 33.52 114.54 51.98 80.47 76.13 120.78 50.85 72.16 23.29 121.61"/><path class="cls-22" d="M50.28,63l-27,55.26L50.85,69.67,78.7,119.42l.86-.23c.66-.18,1.35-.35,2-.51l2-.48,2-.44c2.68-.59,5.37-1.1,8-1.52,1.33-.21,2.61-.4,3.86-.56L74.14,73Z"/><path class="cls-22" d="M116.75,84.63l-23.3,6.23-3.79,8.46,8.85,16.22,1.4-.16,16.84-27.84,17.56,30.1.06,0Z"/><path class="cls-22" d="M102.1,115.17l.18,0h.07l14.11-21.37,11.65,22v.37l.39.07c.61.11,1.23.25,1.8.38s1.26.29,1.78.43h0L116.75,89.61Z"/><rect class="cls-22" x="47.64" y="97.78" width="5.12" height="7.48"/><rect class="cls-22" x="53.85" y="97.78" width="5.12" height="7.48"/><rect class="cls-22" x="47.64" y="106.87" width="5.12" height="7.48"/><rect class="cls-22" x="53.85" y="106.87" width="5.12" height="7.48"/><rect class="cls-22" x="113.26" y="103.83" width="3.01" height="4.4"/><rect class="cls-22" x="116.91" y="103.83" width="3.01" height="4.4"/><rect class="cls-22" x="113.26" y="109.17" width="3.01" height="4.4"/><rect class="cls-22" x="116.91" y="109.17" width="3.01" height="4.4"/><path class="cls-22" d="M6.77,183.85q2.58-7.38,5.06-14.9-4,.27-8,.33c.47-1.34.94-2.69,1.4-4a158.29,158.29,0,0,0,21-2.09c-.41,1.44-.81,2.89-1.22,4.33q-4,.6-8,1-2.4,7.65-4.9,15.19C10.33,183.77,8.55,183.83,6.77,183.85Z"/><path class="cls-22" d="M24.41,174.5c.45-4.13,4.25-11.88,15.16-14.33,7.14-1.65,11.09.85,10.83,6.28-.21,4.33-3.8,13.09-15.24,15C27.66,182.7,23.86,179.52,24.41,174.5ZM45,168c.18-3-1.9-4.36-6.13-3.44-7.08,1.5-8.81,6.64-9,8.84-.28,2.88,1.71,4.39,6.15,3.61C42.21,175.94,44.81,171.66,45,168Z"/><path class="cls-22" d="M53.66,170.74a13.85,13.85,0,0,1,.32-2.25q1.32-6.11,2.6-12.26c1.7-.47,3.41-.95,5.11-1.44q-1.26,6.42-2.57,12.8A7.3,7.3,0,0,0,59,169c-.08,2.21,1.52,2.79,4.7,2a7.67,7.67,0,0,0,6-6.49q1.15-6.3,2.26-12.65L77,150.27q-1.08,6.58-2.22,13.12c-.94,5.44-4.18,10.41-12,12.31C55.78,177.36,53.47,174.72,53.66,170.74Z"/><path class="cls-22" d="M94.65,159.45q2.92,3.17,5.92,6.42c-2.25.52-4.5,1.06-6.76,1.6l-5.35-6.15-3.16.85q-.6,3.87-1.23,7.72l-5.31,1.35q1.9-11.24,3.67-22.61c3.92-1.17,7.83-2.33,11.74-3.45.75-.23,7.31-2.08,7.61,4.79C101.92,153.44,100.28,157.1,94.65,159.45Zm-7.81-7.4L86,157.38l5.45-1.49c1.65-.45,5.08-1.35,5-4.36-.08-2.16-1.83-1.68-3.84-1.12S88.76,151.49,86.84,152.05Z"/><path class="cls-22" d="M104.62,165q1.42-11.62,2.7-23.37c6.55-1.67,13.1-3.15,19.65-4.31-.12,1.73-.24,3.45-.37,5.17-4.89.83-9.78,1.84-14.67,3-.14,1.35-.28,2.7-.43,4,4.12-.92,8.24-1.77,12.36-2.5-.15,1.72-.29,3.43-.45,5.15-4.15.7-8.3,1.53-12.46,2.43-.15,1.41-.29,2.82-.44,4.23,5-1.06,10-2,15-2.77l-.45,5.13C118.24,162.14,111.43,163.46,104.62,165Z"/><path class="cls-22" d="M129.81,160.48q.94-11.91,1.74-23.95a155.27,155.27,0,0,1,19.65-1.78c0,1.76-.1,3.52-.16,5.28-4.89.09-9.78.45-14.67,1l-.27,4.13c4.12-.46,8.24-.78,12.36-.91l-.24,5.25c-4.15.11-8.31.41-12.46.86-.09,1.44-.18,2.89-.28,4.33,5-.51,10-.82,15-.86l-.24,5.23A168.66,168.66,0,0,0,129.81,160.48Z"/></svg>