<svg id="Layer_1" data-name="Layer 1" xmlns="http://www.w3.org/2000/svg" xmlns:xlink="http://www.w3.org/1999/xlink" viewBox="0 0 701.36 152.66"><defs><style>.cls-1{fill:url(#linear-gradient);}.cls-2{fill:url(#linear-gradient-2);}.cls-3{fill:url(#linear-gradient-3);}.cls-4{fill:url(#linear-gradient-4);}.cls-5{fill:url(#linear-gradient-5);}.cls-6{fill:url(#linear-gradient-6);}.cls-7{fill:url(#linear-gradient-7);}.cls-8{fill:url(#linear-gradient-8);}.cls-11,.cls-13,.cls-15,.cls-17,.cls-19,.cls-20,.cls-9{opacity:0.18;}.cls-9{fill:url(#linear-gradient-9);}.cls-10{fill:url(#linear-gradient-10);}.cls-11{fill:url(#linear-gradient-11);}.cls-12{fill:url(#linear-gradient-12);}.cls-13{fill:url(#linear-gradient-13);}.cls-14{fill:url(#linear-gradient-14);}.cls-15{fill:url(#linear-gradient-15);}.cls-16{fill:url(#linear-gradient-16);}.cls-17{fill:url(#linear-gradient-17);}.cls-18{fill:url(#linear-gradient-18);}.cls-19{fill:url(#linear-gradient-19);}.cls-20{fill:url(#linear-gradient-20);}.cls-21{fill:#fff083;}.cls-22{fill:#092c9f;}.cls-23{fill:#180938;}.cls-24{fill:#fff;}</style><linearGradient id="linear-gradient" x1="9.07" y1="104.94" x2="146.55" y2="104.94" gradientUnits="userSpaceOnUse"><stop offset="0" stop-color="#ffa900"/><stop offset="0.51" stop-color="#ff593a"/><stop offset="0.99" stop-color="#ff2458"/></linearGradient><linearGradient id="linear-gradient-2" x1="9.07" y1="82.81" x2="146.55" y2="82.81" xlink:href="#linear-gradient"/><linearGradient id="linear-gradient-3" x1="9.07" y1="44.55" x2="146.55" y2="44.55" xlink:href="#linear-gradient"/><linearGradient id="linear-gradient-4" x1="9.07" y1="126.76" x2="146.55" y2="126.76" xlink:href="#linear-gradient"/><linearGradient id="linear-gradient-5" x1="9.07" y1="41.83" x2="146.55" y2="41.83" xlink:href="#linear-gradient"/><linearGradient id="linear-gradient-6" x1="9.07" y1="109.37" x2="146.55" y2="109.37" xlink:href="#linear-gradient"/><linearGradient id="linear-gradient-7" x1="9.07" y1="78.45" x2="146.55" y2="78.45" xlink:href="#linear-gradient"/><linearGradient id="linear-gradient-8" x1="9.07" y1="71.05" x2="146.55" y2="71.05" xlink:href="#linear-gradient"/><linearGradient id="linear-gradient-9" x1="26" y1="71.05" x2="142.61" y2="71.05" gradientUnits="userSpaceOnUse"><stop offset="0.01" stop-color="#fff449"/><stop offset="0.06" stop-color="#fff341"/><stop offset="0.3" stop-color="#ffef25"/><stop offset="0.53" stop-color="#ffec10"/><stop offset="0.76" stop-color="#ffeb04"/><stop offset="0.99" stop-color="#ffea00"/></linearGradient><linearGradient id="linear-gradient-10" x1="9.07" y1="125.85" x2="146.55" y2="125.85" xlink:href="#linear-gradient"/><linearGradient id="linear-gradient-11" x1="26" y1="125.85" x2="142.61" y2="125.85" xlink:href="#linear-gradient-9"/><linearGradient id="linear-gradient-12" x1="12.59" y1="124.19" x2="146" y2="124.19" xlink:href="#linear-gradient"/><linearGradient id="linear-gradient-13" x1="29.02" y1="124.19" x2="142.17" y2="124.19" xlink:href="#linear-gradient-9"/><linearGradient id="linear-gradient-14" x1="9.07" y1="82.8" x2="146.55" y2="82.8" xlink:href="#linear-gradient"/><linearGradient id="linear-gradient-15" x1="26" y1="82.8" x2="142.61" y2="82.8" xlink:href="#linear-gradient-9"/><linearGradient id="linear-gradient-16" x1="9.07" y1="104.84" x2="146.55" y2="104.84" xlink:href="#linear-gradient"/><linearGradient id="linear-gradient-17" x1="26" y1="104.84" x2="142.61" y2="104.84" xlink:href="#linear-gradient-9"/><linearGradient id="linear-gradient-18" x1="9.07" y1="89.44" x2="146.55" y2="89.44" xlink:href="#linear-gradient"/><linearGradient id="linear-gradient-19" x1="26" y1="89.44" x2="142.61" y2="89.44" xlink:href="#linear-gradient-9"/><linearGradient id="linear-gradient-20" x1="44.1" y1="89.44" x2="139.04" y2="89.44" xlink:href="#linear-gradient-9"/></defs><path class="cls-1" d="M134,116.17l.37,0A68.24,68.24,0,0,0,144.5,93.82L142,93.68A57.88,57.88,0,0,1,134,116.17Z"/><path class="cls-2" d="M142.61,85.65c0,.92,0,1.84-.07,2.76l3.12-.26a67.24,67.24,0,0,0,.88-10.69L142,77.2A58.87,58.87,0,0,1,142.61,85.65Z"/><path class="cls-3" d="M51.72,37.29l-31,1.54a68.65,68.65,0,0,0-6.13,11.28L36.84,51.8A58.81,58.81,0,0,1,51.72,37.29Z"/><path class="cls-4" d="M35.09,116.89l-13,.48a68.92,68.92,0,0,0,21.36,19.27,82.82,82.82,0,0,0,10.36-1.29A58.65,58.65,0,0,1,35.09,116.89Z"/><path class="cls-5" d="M84.3,27.34a58.31,58.31,0,0,1,57.37,47.94l4.84-.39a68.74,68.74,0,0,0-121-42.39l30.2,2.33A58.06,58.06,0,0,1,84.3,27.34Z"/><path class="cls-6" d="M29.27,104.89l-13.95.9A67.24,67.24,0,0,0,19.21,113l14.07.81A57.3,57.3,0,0,1,29.27,104.89Z"/><path class="cls-7" d="M26,85.65a58,58,0,0,1,9.59-32L12.68,55.08a68.91,68.91,0,0,0,1,46.69l15.08,1.51A58.36,58.36,0,0,1,26,85.65Z"/><path class="cls-8" d="M91.57,46.14a47.46,47.46,0,0,1,44,29.65l6.1-.51A58.29,58.29,0,0,0,55.72,34.83l17.77,1.38L51.72,37.29A58.81,58.81,0,0,0,36.84,51.8l12.54,1-13.79.88a58.33,58.33,0,0,0-6.87,49.65l10,1-9.47.61a57.3,57.3,0,0,0,4,9l15.8.91A47.46,47.46,0,0,1,91.57,46.14Z"/><path class="cls-9" d="M91.57,46.14a47.46,47.46,0,0,1,44,29.65l6.1-.51A58.29,58.29,0,0,0,55.72,34.83l17.77,1.38L51.72,37.29A58.81,58.81,0,0,0,36.84,51.8l12.54,1-13.79.88a58.33,58.33,0,0,0-6.87,49.65l10,1-9.47.61a57.3,57.3,0,0,0,4,9l15.8.91A47.46,47.46,0,0,1,91.57,46.14Z"/><path class="cls-10" d="M49.89,116.34l-14.8.55a58.65,58.65,0,0,0,18.73,18.46c3.68-.69,7.32-1.58,10.88-2.61A47.69,47.69,0,0,1,49.89,116.34Z"/><path class="cls-11" d="M49.89,116.34l-14.8.55a58.65,58.65,0,0,0,18.73,18.46c3.68-.69,7.32-1.58,10.88-2.61A47.69,47.69,0,0,1,49.89,116.34Z"/><path class="cls-12" d="M128,124.11l-.16.16.14-.16Z"/><path class="cls-13" d="M128,124.11l-.16.16.14-.16Z"/><path class="cls-14" d="M142.54,88.41c0-.92.07-1.84.07-2.76A58.87,58.87,0,0,0,142,77.2l-6-.33a47.21,47.21,0,0,1,2.79,11.85Z"/><path class="cls-15" d="M142.54,88.41c0-.92.07-1.84.07-2.76A58.87,58.87,0,0,0,142,77.2l-6-.33a47.21,47.21,0,0,1,2.79,11.85Z"/><path class="cls-16" d="M139,93.52v.09a47.3,47.3,0,0,1-5.67,22.53l.61,0A57.88,57.88,0,0,0,142,93.68Z"/><path class="cls-17" d="M139,93.52v.09a47.3,47.3,0,0,1-5.67,22.53l.61,0A57.88,57.88,0,0,0,142,93.68Z"/><path class="cls-18" d="M139,93.52l-35-1.94,34.8-2.86A47.21,47.21,0,0,0,136,76.87l-8.15-.45,7.72-.63a47.47,47.47,0,1,0-86.49,39l17.07,1-16.26.59a47.69,47.69,0,0,0,14.81,16.4l.44-.12c15.68-4.59,30.61-11.74,46.63-14.87a90.83,90.83,0,0,1,21.6-1.61A47.3,47.3,0,0,0,139,93.61Z"/><path class="cls-19" d="M139,93.52l-35-1.94,34.8-2.86A47.21,47.21,0,0,0,136,76.87l-8.15-.45,7.72-.63a47.47,47.47,0,1,0-86.49,39l17.07,1-16.26.59a47.69,47.69,0,0,0,14.81,16.4l.44-.12c15.68-4.59,30.61-11.74,46.63-14.87a90.83,90.83,0,0,1,21.6-1.61A47.3,47.3,0,0,0,139,93.61Z"/><path class="cls-20" d="M139,93.52l-35-1.94,34.8-2.86A47.21,47.21,0,0,0,136,76.87l-8.15-.45,7.72-.63a47.47,47.47,0,1,0-86.49,39l17.07,1-16.26.59a47.69,47.69,0,0,0,14.81,16.4l.44-.12c15.68-4.59,30.61-11.74,46.63-14.87a90.83,90.83,0,0,1,21.6-1.61A47.3,47.3,0,0,0,139,93.61Z"/><path class="cls-21" d="M73.49,36.21,55.72,34.83,25.52,32.5a68.9,68.9,0,0,0-4.81,6.33l31-1.54Z"/><path class="cls-21" d="M49.89,116.34l16.26-.59-17.07-1-15.8-.91L19.21,113c.9,1.48,1.86,2.93,2.89,4.33l13-.48Z"/><path class="cls-21" d="M38.74,104.28l-10-1-15.08-1.51q.77,2,1.68,4l14-.9Z"/><path class="cls-21" d="M49.38,52.75l-12.54-1L14.58,50.11c-.7,1.63-1.33,3.28-1.9,5l22.91-1.45Z"/><path class="cls-21" d="M138.79,88.72,104,91.58,139,93.52l3,.16,2.46.14q.7-2.79,1.16-5.67l-3.12.26Z"/><path class="cls-21" d="M135.57,75.79l-7.72.63,8.15.45,6,.33,4.55.26c0-.12,0-.23,0-.35,0-.74,0-1.48,0-2.22l-4.84.39Z"/><path class="cls-22" d="M173.18,127.17c-11.42-5.73-25-6.53-37.63-4.57-2.5.39-5,.9-7.42,1.47l-.17,0h0c-2.87.65-5.71,1.41-8.54,2.25-7.89,2.35-15.64,5.26-23.4,8-13,4.66-26.26,9-40,9.67S27.74,141.26,17.56,132c8.06,4,16.94,5.18,25.91,4.66a81.25,81.25,0,0,0,10.36-1.3,111.83,111.83,0,0,0,10.88-2.61l.44-.11c15.66-4.59,30.6-11.74,46.63-14.88a91.26,91.26,0,0,1,21.59-1.6l.61,0h.38A93.68,93.68,0,0,1,173.18,127.17Z"/><path class="cls-23" d="M173.18,127.17c.83.43,1.66.87,2.48,1.33C174.84,128,174,127.58,173.18,127.17Z"/><polygon class="cls-24" points="27.7 115.66 37.3 115.66 37.3 109.02 54.63 77.03 77.3 114.88 53.56 69.23 27.7 115.66"/><path class="cls-24" d="M53,60.65,27.7,112.53,53.56,66.89,79.71,113.6l.81-.22,1.88-.47,1.88-.45,1.87-.42c2.52-.55,5-1,7.53-1.43,1.25-.2,2.45-.37,3.63-.52L75.43,70Z"/><path class="cls-24" d="M115.44,80.94,93.57,86.79,90,94.73,98.32,110l1.31-.15,15.81-26.14,16.49,28.26,0,0Z"/><path class="cls-24" d="M101.69,109.61l.16,0h.08l13.24-20.07,10.94,20.67v.35l.36.07c.58.1,1.16.23,1.7.35s1.18.27,1.67.4h0l-14.4-25.74Z"/><rect class="cls-24" x="50.55" y="93.29" width="4.8" height="7.03"/><rect class="cls-24" x="56.38" y="93.29" width="4.8" height="7.03"/><rect class="cls-24" x="50.55" y="101.82" width="4.8" height="7.03"/><rect class="cls-24" x="56.38" y="101.82" width="4.8" height="7.03"/><rect class="cls-24" x="112.16" y="98.96" width="2.82" height="4.13"/><rect class="cls-24" x="115.59" y="98.96" width="2.82" height="4.13"/><rect class="cls-24" x="112.16" y="103.98" width="2.82" height="4.13"/><rect class="cls-24" x="115.59" y="103.98" width="2.82" height="4.13"/><path class="cls-22" d="M236.07,105.05l9.47-53.39H220L222.47,37h67.79l-2.52,14.7H262.16l-9.47,53.39Z"/><path class="cls-22" d="M288.25,76.24c0-14.3,9.67-40.59,45.13-40.59,23.16,0,36.56,12.19,36.56,30.11,0,14.51-10,40.6-45.43,40.6C301.25,106.36,288.25,93.87,288.25,76.24Zm64.67-9.37c0-10.17-7.05-16.41-20.65-16.41-22.76,0-26.79,17.32-26.79,24.87,0,10,6.75,16.22,20.65,16.22C345.46,91.55,352.92,79.06,352.92,66.87Z"/><path class="cls-22" d="M381,82.79a43.54,43.54,0,0,1,.71-7.26L388.48,37H405l-6.95,39.88a23.33,23.33,0,0,0-.4,4.34c0,7.25,5.14,10.47,15.11,10.47,10.37,0,16.82-5.74,18.43-16L437.94,37h16.51l-6.94,39.78c-2.93,16.52-12.9,29.72-37.27,29.72C388.69,106.46,381,96,381,82.79Z"/><path class="cls-22" d="M510.27,81.07l17.72,24H506.94L490.73,81.88h-10l-4.12,23.17H460.11l12-68.09h38c2.41,0,23.67,0,23.67,20.85C533.74,68.38,528.1,78.25,510.27,81.07ZM486.1,51.66l-2.83,15.92H500.6c5.24,0,16.11,0,16.11-9.27,0-6.65-5.64-6.65-12.08-6.65Z"/><path class="cls-22" d="M540.6,105.05l12-68.09h63.55l-2.51,14.7h-47l-2.11,11.69h39.38l-2.62,14.7H561.85l-2.12,12.29h47l-2.62,14.71Z"/><path class="cls-22" d="M619,105.05,631,37h63.56L692,51.66H645l-2.11,11.69h39.38l-2.62,14.7H640.22l-2.11,12.29h47l-2.62,14.71Z"/></svg>