<svg id="Layer_1" data-name="Layer 1" xmlns="http://www.w3.org/2000/svg" xmlns:xlink="http://www.w3.org/1999/xlink" viewBox="0 0 176 188.94"><defs><style>.cls-1{fill:url(#linear-gradient);}.cls-2{fill:url(#linear-gradient-2);}.cls-3{fill:url(#linear-gradient-3);}.cls-4{fill:url(#linear-gradient-4);}.cls-5{fill:url(#linear-gradient-5);}.cls-6{fill:url(#linear-gradient-6);}.cls-7{fill:url(#linear-gradient-7);}.cls-8{fill:url(#linear-gradient-8);}.cls-11,.cls-13,.cls-15,.cls-17,.cls-19,.cls-20,.cls-9{opacity:0.18;}.cls-9{fill:url(#linear-gradient-9);}.cls-10{fill:url(#linear-gradient-10);}.cls-11{fill:url(#linear-gradient-11);}.cls-12{fill:url(#linear-gradient-12);}.cls-13{fill:url(#linear-gradient-13);}.cls-14{fill:url(#linear-gradient-14);}.cls-15{fill:url(#linear-gradient-15);}.cls-16{fill:url(#linear-gradient-16);}.cls-17{fill:url(#linear-gradient-17);}.cls-18{fill:url(#linear-gradient-18);}.cls-19{fill:url(#linear-gradient-19);}.cls-20{fill:url(#linear-gradient-20);}.cls-21{fill:#fff083;}.cls-22{fill:#092c9f;}.cls-23{fill:#180938;}.cls-24{fill:#e6e7e8;}</style><linearGradient id="linear-gradient" x1="8.06" y1="107.44" x2="145.54" y2="107.44" gradientUnits="userSpaceOnUse"><stop offset="0" stop-color="#ffa900"/><stop offset="0.51" stop-color="#ff593a"/><stop offset="0.99" stop-color="#ff2458"/></linearGradient><linearGradient id="linear-gradient-2" x1="8.06" y1="85.38" x2="145.54" y2="85.38" xlink:href="#linear-gradient"/><linearGradient id="linear-gradient-3" x1="8.06" y1="47.23" x2="145.54" y2="47.23" xlink:href="#linear-gradient"/><linearGradient id="linear-gradient-4" x1="8.06" y1="129.2" x2="145.54" y2="129.2" xlink:href="#linear-gradient"/><linearGradient id="linear-gradient-5" x1="8.06" y1="44.52" x2="145.54" y2="44.52" xlink:href="#linear-gradient"/><linearGradient id="linear-gradient-6" x1="8.06" y1="111.86" x2="145.54" y2="111.86" xlink:href="#linear-gradient"/><linearGradient id="linear-gradient-7" x1="8.06" y1="81.04" x2="145.54" y2="81.04" xlink:href="#linear-gradient"/><linearGradient id="linear-gradient-8" x1="8.06" y1="73.66" x2="145.54" y2="73.66" xlink:href="#linear-gradient"/><linearGradient id="linear-gradient-9" x1="24.99" y1="73.66" x2="141.6" y2="73.66" gradientUnits="userSpaceOnUse"><stop offset="0.01" stop-color="#fff449"/><stop offset="0.06" stop-color="#fff341"/><stop offset="0.3" stop-color="#ffef25"/><stop offset="0.53" stop-color="#ffec10"/><stop offset="0.76" stop-color="#ffeb04"/><stop offset="0.99" stop-color="#ffea00"/></linearGradient><linearGradient id="linear-gradient-10" x1="8.06" y1="128.28" x2="145.54" y2="128.28" xlink:href="#linear-gradient"/><linearGradient id="linear-gradient-11" x1="24.99" y1="128.28" x2="141.6" y2="128.28" xlink:href="#linear-gradient-9"/><linearGradient id="linear-gradient-12" x1="11.58" y1="126.63" x2="144.99" y2="126.63" xlink:href="#linear-gradient"/><linearGradient id="linear-gradient-13" x1="28.01" y1="126.63" x2="141.16" y2="126.63" xlink:href="#linear-gradient-9"/><linearGradient id="linear-gradient-14" x1="8.06" y1="85.36" x2="145.54" y2="85.36" xlink:href="#linear-gradient"/><linearGradient id="linear-gradient-15" x1="24.99" y1="85.36" x2="141.6" y2="85.36" xlink:href="#linear-gradient-9"/><linearGradient id="linear-gradient-16" x1="8.06" y1="107.35" x2="145.54" y2="107.35" xlink:href="#linear-gradient"/><linearGradient id="linear-gradient-17" x1="24.99" y1="107.35" x2="141.6" y2="107.35" xlink:href="#linear-gradient-9"/><linearGradient id="linear-gradient-18" x1="8.06" y1="91.99" x2="145.54" y2="91.99" xlink:href="#linear-gradient"/><linearGradient id="linear-gradient-19" x1="24.99" y1="91.99" x2="141.6" y2="91.99" xlink:href="#linear-gradient-9"/><linearGradient id="linear-gradient-20" x1="43.1" y1="91.99" x2="138.04" y2="91.99" xlink:href="#linear-gradient-9"/></defs><path class="cls-1" d="M133,118.64l.37,0a67.73,67.73,0,0,0,10.15-22.31L141,96.22A57.67,57.67,0,0,1,133,118.64Z"/><path class="cls-2" d="M141.6,88.21c0,.92,0,1.84-.07,2.75l3.12-.25A68.27,68.27,0,0,0,145.54,80L141,79.79A58.45,58.45,0,0,1,141.6,88.21Z"/><path class="cls-3" d="M50.71,40l-31,1.54a67.87,67.87,0,0,0-6.13,11.24l22.27,1.68A58.41,58.41,0,0,1,50.71,40Z"/><path class="cls-4" d="M34.08,119.36l-13,.47A68.84,68.84,0,0,0,42.45,139a84.71,84.71,0,0,0,10.36-1.28A58.67,58.67,0,0,1,34.08,119.36Z"/><path class="cls-5" d="M83.3,30.08a58.25,58.25,0,0,1,57.36,47.8l4.84-.4a68.78,68.78,0,0,0-121-42.26l30.2,2.33A58.16,58.16,0,0,1,83.3,30.08Z"/><path class="cls-6" d="M28.26,107.4l-13.94.89a65.17,65.17,0,0,0,3.88,7.23l14.07.81A57.81,57.81,0,0,1,28.26,107.4Z"/><path class="cls-7" d="M25,88.21a57.77,57.77,0,0,1,9.59-31.93L11.67,57.73a68.51,68.51,0,0,0,1,46.55l15.09,1.51A57.78,57.78,0,0,1,25,88.21Z"/><path class="cls-8" d="M90.57,48.82a47.47,47.47,0,0,1,44,29.56l6.1-.5A58.35,58.35,0,0,0,54.71,37.55l17.77,1.37L50.71,40A58.41,58.41,0,0,0,35.84,54.46l12.53.95-13.79.87a58,58,0,0,0-6.86,49.51l10,1-9.47.61a57.81,57.81,0,0,0,4,8.93l15.8.91a47.31,47.31,0,0,1,42.5-68.42Z"/><path class="cls-9" d="M90.57,48.82a47.47,47.47,0,0,1,44,29.56l6.1-.5A58.35,58.35,0,0,0,54.71,37.55l17.77,1.37L50.71,40A58.41,58.41,0,0,0,35.84,54.46l12.53.95-13.79.87a58,58,0,0,0-6.86,49.51l10,1-9.47.61a57.81,57.81,0,0,0,4,8.93l15.8.91a47.31,47.31,0,0,1,42.5-68.42Z"/><path class="cls-10" d="M48.89,118.81l-14.81.55a58.67,58.67,0,0,0,18.73,18.4c3.68-.69,7.32-1.57,10.89-2.6A47.61,47.61,0,0,1,48.89,118.81Z"/><path class="cls-11" d="M48.89,118.81l-14.81.55a58.67,58.67,0,0,0,18.73,18.4c3.68-.69,7.32-1.57,10.89-2.6A47.61,47.61,0,0,1,48.89,118.81Z"/><path class="cls-12" d="M127,126.55l-.15.17a2.09,2.09,0,0,1,.14-.17Z"/><path class="cls-13" d="M127,126.55l-.15.17a2.09,2.09,0,0,1,.14-.17Z"/><path class="cls-14" d="M141.53,91c0-.91.07-1.83.07-2.75a58.45,58.45,0,0,0-.62-8.42l-6-.33a47.35,47.35,0,0,1,2.8,11.81Z"/><path class="cls-15" d="M141.53,91c0-.91.07-1.83.07-2.75a58.45,58.45,0,0,0-.62-8.42l-6-.33a47.35,47.35,0,0,1,2.8,11.81Z"/><path class="cls-16" d="M138,96.05s0,.07,0,.1a47,47,0,0,1-5.68,22.45l.61,0A57.67,57.67,0,0,0,141,96.22Z"/><path class="cls-17" d="M138,96.05s0,.07,0,.1a47,47,0,0,1-5.68,22.45l.61,0A57.67,57.67,0,0,0,141,96.22Z"/><path class="cls-18" d="M138,96.05l-35-1.93,34.81-2.85A47.35,47.35,0,0,0,135,79.46L126.84,79l7.72-.63A47.49,47.49,0,0,0,43.1,96.15a47,47,0,0,0,5,21.09l17.07,1-16.25.6A47.61,47.61,0,0,0,63.7,135.16l.44-.12c15.67-4.58,30.6-11.71,46.63-14.83a91.8,91.8,0,0,1,21.59-1.61A47,47,0,0,0,138,96.15S138,96.08,138,96.05Z"/><path class="cls-19" d="M138,96.05l-35-1.93,34.81-2.85A47.35,47.35,0,0,0,135,79.46L126.84,79l7.72-.63A47.49,47.49,0,0,0,43.1,96.15a47,47,0,0,0,5,21.09l17.07,1-16.25.6A47.61,47.61,0,0,0,63.7,135.16l.44-.12c15.67-4.58,30.6-11.71,46.63-14.83a91.8,91.8,0,0,1,21.59-1.61A47,47,0,0,0,138,96.15S138,96.08,138,96.05Z"/><path class="cls-20" d="M138,96.05l-35-1.93,34.81-2.85A47.35,47.35,0,0,0,135,79.46L126.84,79l7.72-.63A47.49,47.49,0,0,0,43.1,96.15a47,47,0,0,0,5,21.09l17.07,1-16.25.6A47.61,47.61,0,0,0,63.7,135.16l.44-.12c15.67-4.58,30.6-11.71,46.63-14.83a91.8,91.8,0,0,1,21.59-1.61A47,47,0,0,0,138,96.15S138,96.08,138,96.05Z"/><path class="cls-21" d="M72.48,38.92,54.71,37.55l-30.2-2.33a67.43,67.43,0,0,0-4.81,6.32l31-1.54Z"/><path class="cls-21" d="M48.89,118.81l16.25-.6-17.07-1-15.8-.91-14.07-.81c.9,1.47,1.86,2.92,2.89,4.31l13-.47Z"/><path class="cls-21" d="M37.73,106.79l-10-1-15.09-1.51c.51,1.36,1.07,2.7,1.69,4l13.94-.89Z"/><path class="cls-21" d="M48.37,55.41l-12.53-.95L13.57,52.78c-.69,1.62-1.33,3.27-1.9,4.95l22.91-1.45Z"/><path class="cls-21" d="M137.79,91.27,103,94.12,138,96.05l3,.17,2.46.13q.7-2.77,1.16-5.64l-3.12.25Z"/><path class="cls-21" d="M134.56,78.38l-7.72.63,8.15.45,6,.33,4.56.25V79.7c0-.74,0-1.48,0-2.22l-4.84.4Z"/><path class="cls-22" d="M172.17,129.6c-11.42-5.71-24.94-6.5-37.63-4.55-2.49.39-5,.9-7.42,1.46l-.17,0h0c-2.88.66-5.72,1.41-8.54,2.25-7.9,2.34-15.65,5.24-23.41,8-13,4.64-26.26,9-40,9.63s-28.24-2.8-38.42-12c8.06,4,16.94,5.17,25.91,4.65a83.08,83.08,0,0,0,10.36-1.3,111.78,111.78,0,0,0,10.88-2.6l.44-.11c15.66-4.58,30.6-11.7,46.63-14.83a90.74,90.74,0,0,1,21.59-1.6l.61,0,.38,0A93.93,93.93,0,0,1,172.17,129.6Z"/><path class="cls-23" d="M172.17,129.6c.83.44,1.66.87,2.48,1.33C173.83,130.46,173,130,172.17,129.6Z"/><polygon class="cls-24" points="23.29 121.27 33.52 121.27 33.52 114.23 51.98 80.26 76.13 120.44 50.85 71.98 23.29 121.27"/><path class="cls-24" d="M50.28,62.87,23.29,118,50.85,69.49l27.85,49.6.86-.23c.66-.18,1.35-.34,2-.5l2-.48,2-.45c2.68-.58,5.37-1.09,8-1.51,1.33-.21,2.61-.4,3.86-.56L74.14,72.81Z"/><path class="cls-24" d="M116.75,84.41l-23.3,6.21-3.79,8.44,8.85,16.17,1.4-.16,16.84-27.76,17.56,30,.06,0Z"/><path class="cls-24" d="M102.1,114.85h.25l14.11-21.31,11.65,22v.37l.39.07,1.8.38c.71.16,1.26.29,1.78.43h0L116.75,89.38Z"/><rect class="cls-24" x="47.64" y="97.52" width="5.12" height="7.46"/><rect class="cls-24" x="53.85" y="97.52" width="5.12" height="7.46"/><rect class="cls-24" x="47.64" y="106.58" width="5.12" height="7.46"/><rect class="cls-24" x="53.85" y="106.58" width="5.12" height="7.46"/><rect class="cls-24" x="113.26" y="103.55" width="3.01" height="4.39"/><rect class="cls-24" x="116.91" y="103.55" width="3.01" height="4.39"/><rect class="cls-24" x="113.26" y="108.87" width="3.01" height="4.39"/><rect class="cls-24" x="116.91" y="108.87" width="3.01" height="4.39"/><path class="cls-22" d="M6.77,183.33q2.58-7.37,5.06-14.86-4,.27-8,.33c.47-1.34.94-2.68,1.4-4a160,160,0,0,0,21-2.08c-.41,1.44-.81,2.88-1.22,4.32-2.66.39-5.32.73-8,1q-2.4,7.64-4.9,15.15C10.33,183.25,8.55,183.31,6.77,183.33Z"/><path class="cls-22" d="M24.41,174c.45-4.12,4.25-11.85,15.16-14.29,7.14-1.65,11.09.85,10.83,6.26-.21,4.31-3.8,13.05-15.24,15C27.66,182.18,23.86,179,24.41,174ZM45,167.56c.18-3-1.9-4.34-6.13-3.42-7.08,1.49-8.81,6.61-9,8.81-.28,2.87,1.71,4.38,6.15,3.6C42.21,175.44,44.81,171.17,45,167.56Z"/><path class="cls-22" d="M53.66,170.25A13.89,13.89,0,0,1,54,168q1.32-6.09,2.6-12.22l5.11-1.43q-1.26,6.4-2.57,12.76a7.2,7.2,0,0,0-.17,1.35c-.08,2.2,1.52,2.79,4.7,2a7.65,7.65,0,0,0,6-6.47q1.15-6.28,2.26-12.62L77,149.85c-.72,4.37-1.46,8.74-2.22,13.08-.94,5.42-4.18,10.37-12,12.27C55.78,176.86,53.47,174.22,53.66,170.25Z"/><path class="cls-22" d="M94.65,159q2.92,3.15,5.92,6.41c-2.25.51-4.5,1.05-6.76,1.59l-5.35-6.13-3.16.84c-.41,2.57-.81,5.14-1.23,7.7l-5.31,1.35q1.9-11.2,3.67-22.55c3.92-1.16,7.83-2.32,11.74-3.44.75-.23,7.31-2.07,7.61,4.78C101.92,153,100.28,156.66,94.65,159Zm-7.81-7.38L86,156.94l5.45-1.49c1.65-.44,5.08-1.34,5-4.34-.08-2.16-1.83-1.68-3.84-1.12Z"/><path class="cls-22" d="M104.62,164.5q1.42-11.59,2.7-23.3c6.55-1.67,13.1-3.15,19.65-4.3-.12,1.72-.24,3.44-.37,5.15-4.89.83-9.78,1.84-14.67,3-.14,1.35-.28,2.69-.43,4q6.18-1.4,12.36-2.5c-.15,1.71-.29,3.42-.45,5.13-4.15.7-8.3,1.52-12.46,2.43-.15,1.41-.29,2.81-.44,4.22,5-1.06,10-2,15-2.77l-.45,5.12C118.24,161.68,111.43,163,104.62,164.5Z"/><path class="cls-22" d="M129.81,160q.94-11.88,1.74-23.88a155.25,155.25,0,0,1,19.65-1.77c0,1.75-.1,3.51-.16,5.26-4.89.09-9.78.44-14.67,1l-.27,4.13c4.12-.46,8.24-.78,12.36-.91l-.24,5.23q-6.22.18-12.46.86c-.09,1.44-.18,2.88-.28,4.32,5-.52,10-.82,15-.86l-.24,5.22A170.69,170.69,0,0,0,129.81,160Z"/></svg>